<svg width="44" height="44" viewBox="0 0 44 44" fill="none" xmlns="http://www.w3.org/2000/svg">
<g clip-path="url(#clip0_1330_2194)">
<path d="M1.19091 21.6967C1.18989 25.3572 2.15381 28.9313 3.98668 32.0817L1.01562 42.8454L12.117 39.9571C15.1875 41.6157 18.6278 42.4848 22.1238 42.485H22.133C33.6739 42.485 43.0686 33.1666 43.0735 21.7131C43.0757 16.163 40.8994 10.9441 36.9454 7.01771C32.992 3.09163 27.7342 0.928314 22.1321 0.925781C10.5898 0.925781 1.19585 10.2437 1.19108 21.6967" fill="url(#paint0_linear_1330_2194)"/>
<path d="M0.439908 21.6898C0.438717 25.482 1.43718 29.184 3.3354 32.4471L0.257812 43.5967L11.7573 40.6049C14.9257 42.319 18.4931 43.2228 22.1231 43.2241H22.1325C34.0875 43.2241 43.8196 33.5705 43.8247 21.707C43.8267 15.9575 41.5721 10.551 37.4769 6.48393C33.3811 2.41735 27.9352 0.176192 22.1325 0.173828C10.1754 0.173828 0.444674 9.82609 0.439908 21.6898ZM7.28825 31.8851L6.85888 31.2088C5.05391 28.3611 4.10123 25.0703 4.10259 21.6911C4.10633 11.8303 12.1941 3.80778 22.1393 3.80778C26.9555 3.8098 31.4816 5.67271 34.886 9.05269C38.2902 12.433 40.1634 16.9265 40.1622 21.7057C40.1578 31.5665 32.0698 39.59 22.1325 39.59H22.1253C18.8896 39.5883 15.7162 38.7261 12.9487 37.0968L12.2901 36.7092L5.4661 38.4845L7.28825 31.8851Z" fill="url(#paint1_linear_1330_2194)"/>
<path d="M16.7101 12.6918C16.304 11.7963 15.8767 11.7782 15.4906 11.7625C15.1744 11.749 14.8129 11.75 14.4518 11.75C14.0903 11.75 13.503 11.8849 13.0066 12.4228C12.5096 12.9611 11.1094 14.262 11.1094 16.908C11.1094 19.5539 13.0517 22.1112 13.3224 22.4703C13.5935 22.8288 17.0721 28.4324 22.5812 30.5881C27.1599 32.3796 28.0916 32.0233 29.0853 31.9335C30.0792 31.844 32.2922 30.6329 32.7437 29.377C33.1956 28.1214 33.1956 27.045 33.0601 26.8201C32.9246 26.596 32.5632 26.4614 32.0211 26.1926C31.4791 25.9238 28.8142 24.6225 28.3174 24.443C27.8205 24.2637 27.4592 24.1742 27.0977 24.7127C26.7363 25.2503 25.6983 26.4614 25.382 26.8201C25.0659 27.1796 24.7496 27.2244 24.2077 26.9554C23.6653 26.6855 21.9197 26.1183 19.8488 24.2863C18.2375 22.8608 17.1497 21.1003 16.8335 20.5618C16.5173 20.0242 16.7996 19.7327 17.0714 19.4647C17.3149 19.2238 17.6136 18.8367 17.8849 18.5228C18.1551 18.2087 18.2453 17.9846 18.4261 17.626C18.607 17.267 18.5164 16.9529 18.3811 16.6839C18.2453 16.4149 17.1921 13.7551 16.7101 12.6918Z" fill="white"/>
</g>
<defs>
<linearGradient id="paint0_linear_1330_2194" x1="2103.91" y1="4192.89" x2="2103.91" y2="0.925781" gradientUnits="userSpaceOnUse">
<stop stop-color="#1FAF38"/>
<stop offset="1" stop-color="#60D669"/>
</linearGradient>
<linearGradient id="paint1_linear_1330_2194" x1="2178.6" y1="4342.46" x2="2178.6" y2="0.173828" gradientUnits="userSpaceOnUse">
<stop stop-color="#F9F9F9"/>
<stop offset="1" stop-color="white"/>
</linearGradient>
<clipPath id="clip0_1330_2194">
<rect width="43.5669" height="43.5669" fill="white" transform="translate(0.257812 0.171875)"/>
</clipPath>
</defs>
</svg>
